# xmcd
#
# Track frame offsets: 
#        150
#        9472
#        28125
#        43585
#        59172
#        78270
#        94687
#        113575
#        127915
#        146972
#
# Disc length: 2165 seconds
#
# Revision: 0
# Processed by: cddbd v1.5.1PL0 Copyright (c) Steve Scherf et al.
# Submitted via: ExactAudioCopy v0.95b1
#
DISCID=8208730a
DTITLE=나리 - TAERFULLY
DYEAR=2003
DGENRE=Pop
TTITLE0=Intro
TTITLE1=小女之夢
TTITLE2=바램
TTITLE3=Now you're Gone
TTITLE4='摸꼭 또 하나의 아픔인거죠
TTITLE5=그대없이는
TTITLE6=그대마음 깊은곳에
TTITLE7=나역시 그대를
TTITLE8='摸꼭 또 하나의 아픔인거죠 (MR)
TTITLE9=바램
EXTD=
EXTT0=
EXTT1=
EXTT2=
EXTT3=
EXTT4=
EXTT5=
EXTT6=
EXTT7=
EXTT8=
EXTT9=
PLAYORDER=
